<svg xmlns="http://www.w3.org/2000/svg" width="300" height="38" viewBox="0 0 300 38"><defs><style>.a{fill:#11354e;}.b{fill:#ec3332;}.c{fill:#fff;}</style></defs><title>Fight for the Future Logo</title><polygon class="a" points="0 3.72 0 34.716 4.865 34.716 4.865 21.92 11.148 21.92 11.148 17.493 4.865 17.493 4.865 8.149 12.873 8.149 12.873 3.72 0 3.72"/><polygon class="a" points="15.219 34.716 20.087 34.716 20.087 3.72 15.219 3.72 15.219 34.716"/><path class="a" d="M30.305,17.446h6.814v9.83c0,4.962-2.478,7.8-7.256,7.8s-7.255-2.834-7.255-7.8V11.159c0-4.959,2.477-7.793,7.255-7.793s7.256,2.834,7.256,7.793v3.012h-4.6V10.85c0-2.214-.974-3.056-2.522-3.056s-2.523.842-2.523,3.056V27.588c0,2.213.975,3.01,2.523,3.01s2.522-.8,2.522-3.01V21.874H30.305Z"/><polygon class="a" points="44.575 34.716 39.707 34.716 39.707 3.72 44.575 3.72 44.575 17.006 50.105 17.006 50.105 3.72 55.059 3.72 55.059 34.716 50.105 34.716 50.105 21.433 44.575 21.433 44.575 34.716"/><polygon class="a" points="57.649 3.72 72.691 3.72 72.691 8.149 67.604 8.149 67.604 34.716 62.737 34.716 62.737 8.149 57.649 8.149 57.649 3.72"/><polygon class="a" points="158.602 17.46 164.884 17.46 164.884 21.885 158.602 21.885 158.602 34.683 153.736 34.683 153.736 3.687 166.61 3.687 166.61 8.116 158.602 8.116 158.602 17.46"/><path class="a" d="M174,3.687V27.6c0,2.213.974,3.01,2.522,3.01s2.521-.8,2.521-3.01V3.687h4.6v23.6c0,4.959-2.476,7.8-7.254,7.8s-7.257-2.837-7.257-7.8V3.687Z"/><polygon class="a" points="186.211 3.687 201.254 3.687 201.254 8.116 196.165 8.116 196.165 34.683 191.3 34.683 191.3 8.116 186.211 8.116 186.211 3.687"/><path class="a" d="M208.687,3.687V27.6c0,2.213.973,3.01,2.521,3.01s2.522-.8,2.522-3.01V3.687h4.6v23.6c0,4.959-2.478,7.8-7.255,7.8s-7.256-2.837-7.256-7.8V3.687Z"/><path class="a" d="M225.718,8.116v9.519h1.9c1.814,0,2.919-.8,2.919-3.275V11.3c0-2.215-.752-3.188-2.478-3.188Zm5.31,26.567a9.552,9.552,0,0,1-.442-3.809V26c0-2.878-.972-3.94-3.186-3.94h-1.682V34.68h-4.864v-31H228.2c5.043,0,7.211,2.346,7.211,7.13v2.434c0,3.189-1.018,5.271-3.184,6.287,2.432,1.019,3.228,3.365,3.228,6.6v4.781a9.155,9.155,0,0,0,.53,3.765Z"/><polygon class="a" points="242.807 16.749 249.489 16.749 249.489 21.178 242.807 21.178 242.807 30.255 251.212 30.255 251.212 34.683 237.941 34.683 237.941 3.687 251.212 3.687 251.212 8.116 242.807 8.116 242.807 16.749"/><polygon class="a" points="79.428 3.706 86.937 3.706 86.937 6.113 82.259 6.113 82.259 17.408 86.721 17.408 86.721 19.812 82.259 19.812 82.259 34.716 79.428 34.716 79.428 3.706"/><path class="a" d="M92.28,29.648c0,1.716.344,2.918,2.146,2.918s2.145-1.2,2.145-2.918V8.774c0-1.716-.343-2.92-2.145-2.92s-2.146,1.2-2.146,2.92ZM89.449,8.689c0-3.05,1.158-5.24,4.977-5.24S99.4,5.639,99.4,8.689V29.732c0,3.051-1.159,5.241-4.978,5.241s-4.977-2.19-4.977-5.241Z"/><path class="a" d="M106.634,17.408c1.33,0,2.1-.386,2.1-2.235V8.216c0-1.8-.944-2.1-2.4-2.1h-1.587v11.3Zm2.232,4.293c0-1.5-.9-1.889-2.232-1.889h-1.887v14.9h-2.834V3.706h5.28c2.7,0,4.374.474,4.374,3.565v7.86c0,2.406-.9,3.221-3.089,3.35v.085c2.017.13,3.219.731,3.219,2.878V34.716h-2.831Z"/><polygon class="a" points="118.42 6.181 115.255 6.181 115.255 3.783 124.406 3.783 124.406 6.181 121.241 6.181 121.241 34.688 118.42 34.688 118.42 6.181"/><polygon class="a" points="134.031 3.783 136.854 3.783 136.854 34.688 134.031 34.688 134.031 19.834 129.798 19.834 129.798 34.688 126.975 34.688 126.975 3.783 129.798 3.783 129.798 17.438 134.031 17.438 134.031 3.783"/><polygon class="a" points="139.373 3.783 146.858 3.783 146.858 6.181 142.196 6.181 142.196 17.438 146.644 17.438 146.644 19.834 142.196 19.834 142.196 32.292 146.858 32.292 146.858 34.688 139.373 34.688 139.373 3.783"/><path class="b" d="M291.388,17.308c-.256,3.273-2.725,7.309-9.942,12.375-7.217-5.066-9.683-9.1-9.939-12.375V16.17c.274-3.42,2.525-5.205,4.473-5.394a8.721,8.721,0,0,1,.9-.046c2.251,0,3.331.972,4.566,2.447,1.237-1.475,2.315-2.447,4.563-2.447a8.721,8.721,0,0,1,.9.046c1.948.189,4.2,1.974,4.476,5.394Zm-10-16.937A18.629,18.629,0,1,0,300,19.017V19A18.621,18.621,0,0,0,281.388.371Z"/><path class="c" d="M286.912,10.776a8.722,8.722,0,0,0-.9-.047c-2.248,0-3.326.972-4.563,2.449-1.235-1.477-2.316-2.449-4.566-2.449a8.722,8.722,0,0,0-.9.047c-1.948.189-4.2,1.974-4.473,5.394v1.138c.256,3.273,2.722,7.309,9.939,12.375,7.217-5.066,9.686-9.1,9.942-12.375V16.17c-.276-3.42-2.528-5.205-4.476-5.394"/></svg>
